<svg xmlns="http://www.w3.org/2000/svg" width="334" height="259" viewBox="0 0 334 259">
    <path fill="#4CA1FF" fill-rule="evenodd" d="M-158.57-65.379c-1.368-.773-1.84-2.501-1.051-3.842.79-1.34 2.554-1.804 3.922-1.03l380.455 215.208c1.367.774 1.84 2.503 1.051 3.843-.79 1.34-2.555 1.803-3.922 1.03L-158.57-65.38zm99.473 39.235c-1.367-.774-1.84-2.503-1.05-3.843.789-1.34 2.554-1.803 3.921-1.03L324.23 184.192c1.368.773 1.842 2.501 1.051 3.842-.79 1.34-2.554 1.803-3.922 1.03L-59.097-26.145zm-194.181-57.824c-1.368-.773-1.84-2.503-1.051-3.843.79-1.34 2.554-1.803 3.922-1.03l380.455 215.209c1.368.773 1.84 2.502 1.051 3.842-.79 1.34-2.555 1.803-3.922 1.03L-253.278-83.969zm151.51 68.717c-1.367-.773-1.84-2.502-1.051-3.843.79-1.34 2.555-1.803 3.922-1.03l380.455 215.208c1.368.774 1.842 2.503 1.051 3.843-.79 1.34-2.554 1.803-3.922 1.03L-101.768-15.251zm-87.724 2.347c-1.368-.773-1.84-2.503-1.051-3.843.79-1.34 2.554-1.803 3.922-1.03l380.455 215.208c1.367.773 1.84 2.503 1.05 3.843-.789 1.34-2.554 1.803-3.921 1.03L-189.492-12.905zM-36.476 56.16c-1.368-.773-1.84-2.501-1.05-3.842.789-1.34 2.554-1.804 3.922-1.03L346.85 266.496c1.367.774 1.84 2.503 1.05 3.843-.789 1.34-2.555 1.803-3.922 1.03L-36.476 56.159zM-396.033-94.753c-1.368-.773-1.84-2.502-1.051-3.843.79-1.34 2.554-1.803 3.922-1.03l380.455 215.208c1.367.774 1.84 2.504 1.051 3.844-.79 1.34-2.555 1.802-3.922 1.03L-396.033-94.753zm311.51 158.717c-1.368-.773-1.84-2.503-1.05-3.843.789-1.34 2.555-1.803 3.921-1.03L298.803 274.3c1.368.774 1.84 2.502 1.051 3.842-.79 1.34-2.554 1.804-3.922 1.03L-84.523 63.963zm-247.724-87.653c-1.368-.774-1.84-2.503-1.051-3.843.79-1.34 2.554-1.803 3.922-1.03L51.08 186.647c1.367.773 1.84 2.501 1.051 3.842-.79 1.34-2.555 1.804-3.922 1.03L-332.247-23.689zm153.016 69.064c-1.367-.774-1.84-2.503-1.051-3.843.79-1.34 2.555-1.803 3.922-1.03L204.095 255.71c1.368.773 1.842 2.502 1.051 3.843-.79 1.34-2.554 1.803-3.922 1.03L-179.231 45.374zm-247.724-87.653c-1.368-.774-1.84-2.503-1.051-3.843.79-1.34 2.554-1.803 3.922-1.03L-43.63 168.057c1.368.774 1.84 2.502 1.05 3.842-.789 1.34-2.555 1.804-3.921 1.03L-426.955-42.278zm257.967 128.887c-1.367-.774-1.84-2.502-1.051-3.842.79-1.34 2.555-1.804 3.922-1.03l380.455 215.207c1.368.774 1.842 2.503 1.051 3.843-.79 1.34-2.554 1.803-3.922 1.03L-168.988 86.609zM-363.17 28.786c-1.368-.775-1.84-2.503-1.051-3.843.79-1.34 2.554-1.803 3.922-1.03L20.157 239.121c1.367.773 1.84 2.502 1.05 3.842-.789 1.34-2.555 1.804-3.922 1.03L-363.169 28.786zm153.016 69.063c-1.368-.774-1.84-2.503-1.05-3.843.789-1.34 2.554-1.803 3.922-1.03l380.454 215.209c1.367.773 1.84 2.501 1.051 3.841-.79 1.34-2.555 1.805-3.922 1.031L-210.153 97.85zm-247.725-87.654c-1.368-.773-1.84-2.502-1.05-3.842.789-1.34 2.554-1.804 3.922-1.03L-74.551 220.53c1.368.774 1.84 2.502 1.05 3.842-.789 1.34-2.555 1.804-3.922 1.03L-457.878 10.196zm311.51 158.718c-1.366-.774-1.84-2.503-1.05-3.843.79-1.34 2.555-1.803 3.922-1.03L236.959 379.25c1.368.773 1.841 2.501 1.05 3.842-.789 1.34-2.553 1.803-3.921 1.03l-380.455-215.208zm-135.891-24.395c-1.368-.773-1.84-2.502-1.051-3.842.79-1.34 2.555-1.804 3.922-1.03l380.455 215.208c1.368.774 1.84 2.502 1.051 3.842-.79 1.34-2.554 1.803-3.922 1.03L-282.26 144.518zm153.016 69.065c-1.368-.775-1.84-2.503-1.05-3.843.789-1.34 2.554-1.803 3.922-1.03l380.455 215.208c1.368.773 1.84 2.502 1.05 3.842-.789 1.34-2.555 1.804-3.922 1.03l-380.455-215.207zm-247.724-87.654c-1.367-.774-1.84-2.502-1.051-3.842.79-1.34 2.555-1.804 3.922-1.03L6.359 336.264c1.368.774 1.841 2.503 1.05 3.843-.789 1.34-2.553 1.803-3.921 1.03l-380.455-215.208zm311.51 158.717c-1.368-.774-1.84-2.502-1.05-3.842.789-1.34 2.554-1.804 3.922-1.03L317.87 494.982c1.367.773 1.84 2.502 1.05 3.842-.789 1.34-2.555 1.804-3.922 1.03L-65.457 284.646zm-247.724-87.654c-1.368-.773-1.84-2.501-1.051-3.841.79-1.34 2.555-1.805 3.922-1.03L70.145 407.328c1.368.774 1.841 2.503 1.05 3.843-.789 1.34-2.554 1.803-3.922 1.03L-313.18 196.992zm44.88 7.348c-1.368-.773-1.84-2.502-1.05-3.843.789-1.34 2.555-1.803 3.922-1.03l380.454 215.21c1.368.773 1.84 2.5 1.051 3.841-.79 1.34-2.554 1.804-3.922 1.03L-268.3 204.34zm-251.421-89.196c-1.368-.773-1.84-2.503-1.051-3.843.79-1.34 2.555-1.803 3.922-1.03l380.455 215.209c1.368.774 1.842 2.502 1.051 3.842-.79 1.34-2.554 1.804-3.922 1.03l-380.455-215.208zm257.967 128.888c-1.368-.774-1.84-2.503-1.05-3.843.789-1.34 2.554-1.803 3.922-1.03l380.455 215.208c1.367.774 1.84 2.502 1.05 3.843-.789 1.34-2.555 1.803-3.922 1.03l-380.455-215.208zm-194.181-57.824c-1.368-.773-1.84-2.503-1.051-3.843.79-1.34 2.555-1.803 3.922-1.03L-72.61 396.544c1.368.775 1.84 2.503 1.05 3.843-.789 1.34-2.553 1.803-3.921 1.03l-380.455-215.208zm153.016 69.063c-1.368-.773-1.84-2.501-1.05-3.842.789-1.34 2.554-1.804 3.922-1.03L80.407 465.608c1.368.774 1.84 2.503 1.05 3.843-.789 1.34-2.555 1.803-3.922 1.03L-302.92 255.27zm-247.725-87.653c-1.366-.774-1.84-2.502-1.05-3.842.789-1.34 2.555-1.804 3.922-1.03l380.455 215.208c1.368.773 1.841 2.502 1.05 3.843-.789 1.34-2.554 1.803-3.922 1.03l-380.455-215.21zm311.511 158.717c-1.368-.773-1.84-2.502-1.05-3.843.789-1.34 2.554-1.803 3.922-1.03l380.455 215.21c1.366.773 1.84 2.5 1.05 3.84-.79 1.341-2.555 1.805-3.922 1.032l-380.455-215.209zm-247.725-87.653c-1.368-.774-1.84-2.503-1.05-3.843.789-1.34 2.555-1.803 3.922-1.03l380.455 215.209c1.368.773 1.84 2.501 1.05 3.842-.789 1.34-2.554 1.804-3.922 1.03l-380.455-215.208zm153.017 69.064c-1.368-.774-1.84-2.503-1.05-3.843.789-1.34 2.554-1.803 3.921-1.03L49.484 518.081c1.368.774 1.84 2.502 1.051 3.843-.79 1.34-2.554 1.803-3.922 1.03l-380.455-215.208zm-247.725-87.653c-1.367-.774-1.84-2.503-1.05-3.843.789-1.34 2.555-1.803 3.922-1.03l380.455 215.208c1.367.774 1.841 2.502 1.05 3.842-.79 1.34-2.554 1.804-3.922 1.03l-380.455-215.207zm203.375 97c-1.368-.774-1.84-2.502-1.051-3.842.79-1.34 2.554-1.803 3.922-1.03L5.134 527.43c1.368.773 1.84 2.502 1.051 3.843-.79 1.34-2.555 1.803-3.922 1.03l-380.455-215.208z" opacity=".25"/>
</svg>
