<svg xmlns="http://www.w3.org/2000/svg" width="460" height="196" viewBox="0 0 460 196">
    <path fill="#00D5B1" fill-rule="evenodd" d="M-112.517 280.39c-.79-1.34-.317-3.068 1.051-3.841L268.99 61.34c1.368-.773 3.133-.31 3.922 1.03.791 1.34.316 3.07-1.05 3.843L-108.594 281.42c-1.368.773-3.133.31-3.923-1.03zm-68.86 21.576c-.79-1.34-.317-3.069 1.05-3.842L200.13 82.916c1.366-.774 3.132-.31 3.922 1.03s.316 3.068-1.051 3.842l-380.455 215.208c-1.368.774-3.133.31-3.922-1.03zm238.304-82.541c-.79-1.34-.317-3.07 1.051-3.843L438.433.375c1.368-.774 3.133-.31 3.923 1.03s.316 3.068-1.051 3.842L60.85 220.455c-1.368.773-3.133.31-3.923-1.03zm-269.544 135.09c-.79-1.34-.318-3.069 1.05-3.842l380.455-215.209c1.367-.773 3.133-.31 3.923 1.03s.317 3.07-1.051 3.843l-380.455 215.208c-1.368.774-3.133.31-3.922-1.03zm226.756-76.37c-.79-1.34-.317-3.069 1.05-3.842L395.646 59.096c1.367-.775 3.133-.311 3.922 1.03.79 1.34.317 3.067-1.05 3.841L18.06 279.175c-1.368.774-3.133.311-3.922-1.03zm-164.594 76.295c-.79-1.34-.317-3.068 1.05-3.843L231.052 135.39c1.367-.774 3.133-.31 3.922 1.03.79 1.34.317 3.069-1.05 3.842L-146.534 355.47c-1.368.773-3.133.31-3.922-1.03zm227.303-75.855c-.79-1.34-.317-3.069 1.051-3.842L458.354 59.534c1.368-.773 3.133-.31 3.922 1.03.79 1.34.316 3.07-1.05 3.843L80.77 279.614c-1.368.775-3.132.311-3.922-1.03zm-179.256 83.66c-.79-1.34-.318-3.07 1.05-3.843l380.455-215.207c1.367-.774 3.133-.31 3.923 1.03s.317 3.068-1.051 3.842L-98.486 363.275c-1.367.773-3.133.31-3.922-1.03zm247.753-87.684c-.79-1.34-.317-3.069 1.051-3.843L526.851 55.51c1.367-.773 3.133-.31 3.922 1.03.79 1.34.317 3.07-1.05 3.843L149.266 275.59c-1.368.774-3.132.311-3.922-1.03zM-7.7 343.656c-.79-1.34-.317-3.07 1.05-3.843l380.456-215.208c1.367-.774 3.132-.31 3.922 1.03s.317 3.069-1.051 3.842L-3.778 344.685c-1.368.774-3.133.311-3.922-1.03zm248.804-91.527L621.56 36.92c1.367-.774 3.133-.31 3.922 1.03.79 1.34.318 3.068-1.05 3.842L243.976 257c-1.367.774-3.133.31-3.923-1.03s-.317-3.069 1.051-3.842zm-312.59 162.59c-.79-1.34-.317-3.068 1.05-3.842L310.02 195.67c1.368-.774 3.133-.31 3.922 1.03.79 1.34.316 3.069-1.05 3.842L-67.565 415.75c-1.368.774-3.133.31-3.922-1.03zm238.305-82.541c-.79-1.34-.317-3.069 1.05-3.842l380.456-215.209c1.368-.773 3.132-.31 3.922 1.03s.316 3.07-1.051 3.843L170.74 333.208c-1.368.774-3.133.31-3.922-1.03zM23.222 396.13c-.79-1.34-.317-3.07 1.051-3.843l380.455-215.208c1.368-.773 3.133-.31 3.922 1.03.79 1.34.316 3.068-1.05 3.843L27.143 397.159c-1.368.774-3.132.311-3.922-1.03zm115.47-12.597c-.79-1.34-.316-3.068 1.051-3.842L520.2 164.483c1.366-.773 3.132-.31 3.921 1.03.79 1.34.318 3.07-1.05 3.843L142.615 384.563c-1.367.774-3.133.31-3.923-1.03zm-179.256 83.66c-.79-1.34-.317-3.069 1.051-3.842l380.455-215.207c1.367-.775 3.133-.311 3.922 1.03.79 1.34.317 3.067-1.05 3.841L-36.643 468.223c-1.367.774-3.132.311-3.922-1.03zm135.92-24.425c-.789-1.34-.315-3.069 1.052-3.842l380.455-215.208c1.366-.773 3.132-.31 3.922 1.03s.317 3.068-1.051 3.843L99.279 443.798c-1.367.774-3.133.31-3.922-1.03zm-153.045 69.095c-.79-1.34-.316-3.069 1.051-3.842l380.455-215.209c1.367-.773 3.133-.31 3.922 1.03.79 1.34.317 3.07-1.05 3.843L-53.767 512.892c-1.367.775-3.133.31-3.923-1.03zm247.754-87.685c-.79-1.339-.317-3.068 1.05-3.842l380.456-215.208c1.367-.774 3.133-.31 3.922 1.03.79 1.34.317 3.069-1.05 3.842L193.986 425.21c-1.367.773-3.133.31-3.922-1.03zm-311.54 158.749c-.79-1.34-.316-3.069 1.051-3.843l380.455-215.208c1.368-.773 3.134-.31 3.924 1.03s.316 3.07-1.051 3.843l-380.456 215.207c-1.367.774-3.133.31-3.923-1.03zm247.754-87.685c-.79-1.34-.316-3.068 1.05-3.842l380.456-215.208c1.368-.774 3.133-.31 3.923 1.03.789 1.34.315 3.069-1.05 3.842L130.2 496.272c-1.367.774-3.133.31-3.922-1.03zm-153.045 69.095c-.79-1.34-.317-3.069 1.05-3.842L354.74 345.287c1.368-.773 3.133-.31 3.924 1.03.79 1.34.315 3.068-1.052 3.842L-22.844 565.367c-1.367.774-3.133.31-3.922-1.03zM332.82 413.394c-.79-1.34-.317-3.07 1.05-3.843l380.456-215.207c1.367-.774 3.132-.31 3.922 1.03s.317 3.068-1.051 3.842L336.742 414.424c-1.367.773-3.133.31-3.922-1.03zM21.28 572.142c-.789-1.34-.316-3.069 1.052-3.843l380.455-215.208c1.367-.773 3.132-.31 3.922 1.03.79 1.341.317 3.069-1.051 3.843L25.203 573.172c-1.368.773-3.133.31-3.922-1.03zm238.306-82.541c-.79-1.34-.318-3.07 1.05-3.843l380.455-215.207c1.367-.775 3.133-.31 3.923 1.03s.317 3.068-1.051 3.841L263.507 490.631c-1.367.773-3.132.31-3.921-1.03zm-143.598 63.951c-.789-1.34-.316-3.068 1.051-3.843l380.455-215.207c1.368-.774 3.133-.31 3.924 1.03.788 1.34.315 3.069-1.051 3.842L119.91 554.582c-1.367.773-3.133.31-3.923-1.03zm115.472-12.596c-.79-1.34-.317-3.069 1.05-3.842l380.456-215.208c1.366-.774 3.131-.311 3.922 1.03.79 1.34.316 3.069-1.052 3.842L235.38 541.985c-1.367.775-3.132.311-3.921-1.03zm-179.257 83.66c-.79-1.34-.317-3.07 1.05-3.843L433.71 405.566c1.366-.774 3.132-.31 3.922 1.03s.317 3.069-1.051 3.842L56.125 625.646c-1.367.773-3.133.31-3.922-1.03zm247.753-87.684c-.79-1.34-.317-3.069 1.051-3.843l380.455-215.207c1.367-.774 3.133-.311 3.922 1.03.79 1.34.317 3.069-1.05 3.842L303.877 537.961c-1.367.774-3.132.311-3.922-1.03zm-153.045 69.095c-.79-1.34-.317-3.07 1.05-3.843l380.456-215.208c1.367-.774 3.132-.31 3.922 1.03s.317 3.069-1.051 3.842L150.833 607.057c-1.367.773-3.133.31-3.922-1.03zm247.753-87.684c-.79-1.34-.317-3.07 1.051-3.843L776.17 299.292c1.367-.774 3.133-.31 3.922 1.03.79 1.34.317 3.068-1.05 3.842L398.587 519.372c-1.367.774-3.133.31-3.923-1.03zM83.124 677.09c-.789-1.34-.315-3.068 1.052-3.842L464.63 458.04c1.368-.774 3.133-.31 3.923 1.03.789 1.34.316 3.069-1.05 3.842L87.046 678.12c-1.367.774-3.133.31-3.922-1.03z"/>
</svg>
