<svg xmlns="http://www.w3.org/2000/svg" width="133" height="40" viewBox="0 0 133 40">
    <g fill="#FFF" fill-rule="nonzero">
        <path d="M62.455 19.025v5.765c.02.382-.12.756-.39 1.03a1.483 1.483 0 0 1-1.071.375 1.526 1.526 0 0 1-1.084-.374 1.343 1.343 0 0 1-.399-1.031v-5.765c0-.827-.169-1.431-.507-1.812-.338-.381-.866-.573-1.584-.577-.848 0-1.527.266-2.037.798-.51.531-.766 1.241-.766 2.13v5.22c.021.386-.125.761-.4 1.032-.299.26-.688.395-1.084.374a1.48 1.48 0 0 1-1.07-.374 1.361 1.361 0 0 1-.39-1.031V10.784a1.266 1.266 0 0 1 .413-.988c.622-.49 1.498-.5 2.13-.023.272.244.419.596.401.96v5.459c.383-.6.925-1.082 1.566-1.394a4.994 4.994 0 0 1 2.226-.48c2.697 0 4.046 1.57 4.046 4.707zM74.245 15.068a4.982 4.982 0 0 1 1.814 2.118c.446.99.665 2.066.643 3.15a7.068 7.068 0 0 1-.648 3.115 4.9 4.9 0 0 1-1.802 2.06 4.887 4.887 0 0 1-2.66.725 4.585 4.585 0 0 1-2.18-.514 3.635 3.635 0 0 1-1.49-1.428v4.777a1.21 1.21 0 0 1-.4.96c-.297.244-.675.37-1.06.35a1.531 1.531 0 0 1-1.072-.373 1.266 1.266 0 0 1-.41-.988V15.747c-.019-.375.122-.74.387-1.007.285-.26.663-.395 1.049-.375.389-.018.769.117 1.058.375.273.263.419.63.401 1.007v.585a3.593 3.593 0 0 1 1.491-1.483c.685-.36 1.45-.54 2.225-.527a4.795 4.795 0 0 1 2.654.746zm-1.259 7.95c.517-.633.776-1.527.777-2.682 0-1.186-.259-2.107-.777-2.762-.518-.656-1.24-.985-2.167-.989-.942 0-1.668.32-2.178.96-.51.64-.766 1.554-.766 2.74 0 1.17.255 2.076.766 2.716.51.64 1.236.96 2.178.96.927.004 1.649-.311 2.167-.944zM86.055 14.623c.25.237.379.572.353.913 0 .422-.102.734-.306.937-.204.203-.574.33-1.107.397l-.706.071c-.926.094-1.606.407-2.037.937a3.055 3.055 0 0 0-.648 1.99v4.917a1.3 1.3 0 0 1-.43 1.042 1.573 1.573 0 0 1-1.06.363 1.528 1.528 0 0 1-1.048-.363 1.314 1.314 0 0 1-.411-1.042v-9.06c-.024-.38.127-.75.41-1.006a1.52 1.52 0 0 1 1.026-.352 1.42 1.42 0 0 1 .994.34c.262.254.4.608.376.97v.938a3.478 3.478 0 0 1 1.326-1.593 4.098 4.098 0 0 1 1.966-.63l.331-.025c.346-.05.696.042.971.256zM89.2 25.511a5.031 5.031 0 0 1-2.061-2.083 6.576 6.576 0 0 1-.731-3.168 6.502 6.502 0 0 1 .73-3.143 5.033 5.033 0 0 1 2.061-2.072 6.962 6.962 0 0 1 6.193 0 4.977 4.977 0 0 1 2.05 2.072c.495.973.741 2.053.716 3.143a6.669 6.669 0 0 1-.717 3.161 4.976 4.976 0 0 1-2.05 2.084 6.977 6.977 0 0 1-6.192 0v.006zm5.263-2.482c.5-.625.752-1.546.753-2.762.001-1.217-.25-2.135-.753-2.753-.504-.63-1.226-.946-2.167-.947-.941-.001-1.666.315-2.176.947-.51.633-.765 1.55-.765 2.753 0 1.202.251 2.123.754 2.762.502.625 1.225.937 2.167.937.942 0 1.67-.312 2.187-.937zM109.934 24.856a1.29 1.29 0 0 1-.401.924 1.272 1.272 0 0 1-.941.41 1.298 1.298 0 0 1-1.014-.494l-3.313-3.654-3.327 3.654a1.372 1.372 0 0 1-1.012.467 1.364 1.364 0 0 1-1.325-1.317c.001-.365.154-.712.422-.96l3.44-3.723-3.251-3.512a1.324 1.324 0 0 1-.424-.96c-.003-.351.142-.687.4-.926.242-.246.573-.385.919-.385.39.005.758.175 1.013.468l3.138 3.435 3.133-3.426a1.365 1.365 0 0 1 1.012-.467c.732 0 1.325.59 1.325 1.317a1.314 1.314 0 0 1-.424.96l-3.248 3.512 3.447 3.716c.271.247.427.595.43.96zM3.252 27.888c.37-.141.667-.423.827-.782.16-.36.17-.768.028-1.135A16.743 16.743 0 0 1 7.849 8.14a16.979 16.979 0 0 1 17.877-3.979c.772.284 1.63-.11 1.915-.878a1.48 1.48 0 0 0-.883-1.904C19.43-1.298 11.206.531 5.726 6.06a19.695 19.695 0 0 0-4.4 20.976c.141.368.424.664.786.824.362.16.772.17 1.142.028h-.002zm36.446-8.012c.003-2.43-.446-4.84-1.326-7.107a1.495 1.495 0 0 0-2.605-.463 1.475 1.475 0 0 0-.17 1.53 16.744 16.744 0 0 1-3.743 17.83 16.98 16.98 0 0 1-17.877 3.979 1.498 1.498 0 0 0-1.48.242 1.478 1.478 0 0 0 .45 2.54 19.987 19.987 0 0 0 18.243-2.339 19.745 19.745 0 0 0 8.514-16.212h-.006zM24.432 31.242a2.23 2.23 0 0 1-.557-.07c-1.143-.284-1.822-1.378-1.516-2.444l5-17.348c.307-1.065 1.483-1.698 2.626-1.411 1.143.286 1.822 1.378 1.516 2.444l-4.995 17.353a2.126 2.126 0 0 1-2.067 1.48l-.007-.004zm-14.469 0c-.187 0-.374-.023-.555-.07-1.145-.284-1.822-1.378-1.516-2.444L12.89 11.38c.307-1.065 1.491-1.698 2.626-1.411 1.135.286 1.822 1.378 1.516 2.444l-4.993 17.353a2.126 2.126 0 0 1-2.07 1.48l-.006-.004zm8.795-5.423a2.31 2.31 0 0 1-.557-.069c-1.143-.285-1.822-1.38-1.515-2.444l1.878-6.505c.307-1.066 1.491-1.697 2.626-1.412 1.135.285 1.822 1.38 1.516 2.445l-1.872 6.508a2.126 2.126 0 0 1-2.07 1.482l-.006-.005z"/>
    </g>
</svg>
